<svg xmlns="http://www.w3.org/2000/svg" version="1.0" width="228.000000pt" height="228.000000pt" viewBox="0 0 228.000000 228.000000" preserveAspectRatio="xMidYMid meet">

<g transform="translate(0.000000,228.000000) scale(0.100000,-0.100000)" fill="#ffffff" stroke="none">
<path d="M1195 2110 c-268 -43 -407 -209 -362 -436 8 -39 7 -42 -16 -48 -54 -13 -212 -209 -290 -357 -32 -62 -37 -79 -28 -96 11 -22 38 -36 50 -28 4 2 28 39 54 82 51 87 180 243 201 243 23 0 24 -20 4 -160 -13 -96 -96 -1110 -98 -1202 0 -5 17 -8 38 -8 35 0 42 6 124 103 47 56 131 165 186 242 55 77 154 205 219 285 l120 145 52 7 c116 17 212 86 227 164 4 22 2 58 -6 86 -8 32 -9 53 -2 61 5 6 70 87 145 179 74 92 138 175 140 185 19 63 28 142 22 182 -23 164 -166 292 -390 350 -92 24 -297 35 -390 21z m348 -45 c130 -27 228 -85 278 -163 66 -105 58 -220 -23 -308 -119 -129 -351 -70 -389 100 -15 70 1 129 51 178 35 35 42 38 95 38 52 0 60 -3 91 -34 30 -30 34 -40 34 -86 0 -44 -4 -56 -29 -81 -20 -19 -40 -29 -60 -29 -40 0 -40 -16 0 -25 47 -11 95 3 127 35 66 66 43 166 -52 220 -43 25 -62 30 -121 30 -125 -1 -212 -71 -237 -192 -39 -187 112 -347 332 -352 42 0 66 -5 62 -11 -3 -5 -28 -38 -55 -73 -48 -59 -52 -61 -71 -47 -35 24 -154 98 -268 165 -200 117 -269 202 -267 329 1 77 12 113 55 174 85 120 261 172 447 132z m-503 -631 c25 -17 109 -68 187 -113 142 -82 237 -155 248 -191 5 -15 -14 -44 -72 -114 -43 -52 -87 -96 -98 -100 -39 -11 -159 14 -205 42 -92 57 -120 154 -61 213 62 62 181 22 181 -61 0 -37 21 -37 30 1 13 52 -23 114 -85 146 -32 17 -123 23 -167 10 l-28 -7 0 110 c0 86 3 109 13 104 6 -5 32 -22 57 -40z m-50 -458 c61 -42 137 -71 224 -87 36 -6 66 -13 66 -15 0 -2 -38 -49 -84 -104 -108 -129 -203 -256 -295 -392 -40 -60 -80 -108 -88 -108 -18 0 -18 3 26 235 17 88 45 238 63 333 17 94 33 172 35 172 2 0 26 -15 53 -34z" fill="#ffffff"/>
</g>
</svg>